<?xml version="1.0" encoding="UTF-8"?>
<svg width="179px" height="39px" viewBox="0 0 179 39" version="1.1" xmlns="http://www.w3.org/2000/svg" xmlns:xlink="http://www.w3.org/1999/xlink">
    <!-- Generator: Sketch 54.1 (76490) - https://sketchapp.com -->
    <title>Group 45</title>
    <desc>Created with Sketch.</desc>
    <g id="Page-1" stroke="none" stroke-width="1" fill="none" fill-rule="evenodd">
        <g id="dentist-home" transform="translate(-871.000000, -820.000000)">
            <g id="Group-52" transform="translate(0.000000, 801.000000)">
                <g id="Group-45" transform="translate(871.000000, 19.000000)">
                    <path d="M54.048,35 C53.7546652,35 53.608,34.8533348 53.608,34.56 L53.608,4.64 C53.608,4.3466652 53.7546652,4.2 54.048,4.2 L64.696,4.2 C67.7466819,4.2 70.1813242,4.99932534 72,6.598 C73.8186758,8.19667466 74.728,10.3306533 74.728,13 L74.728,26.2 C74.728,28.8693467 73.8186758,31.0033253 72,32.602 C70.1813242,34.2006747 67.7466819,35 64.696,35 L54.048,35 Z M57.832,31.172 C57.832,31.2893339 57.8906661,31.348 58.008,31.348 L64.872,31.348 C66.5733418,31.348 67.9299949,30.8273385 68.942,29.786 C69.9540051,28.7446615 70.4746665,27.3440088 70.504,25.584 L70.504,13.616 C70.504,11.8559912 69.9980051,10.4553385 68.986,9.414 C67.9739949,8.37266146 66.6026753,7.852 64.872,7.852 L58.008,7.852 C57.8906661,7.852 57.832,7.91066608 57.832,8.028 L57.832,31.172 Z M98.4,21.008 C98.5173339,22.2106727 98.5613335,23.5599925 98.532,25.056 C98.532,25.3493348 98.3853348,25.496 98.092,25.496 L84.056,25.496 C83.9386661,25.496 83.88,25.5546661 83.88,25.672 C83.88,26.6693383 83.9679991,27.4319974 84.144,27.96 C84.4666683,29.1333392 85.1193284,30.0499967 86.102,30.71 C87.0846716,31.3700033 88.3239925,31.7 89.82,31.7 C91.9906775,31.7 93.6626608,30.8053423 94.836,29.016 C94.9826674,28.7226652 95.1733322,28.6786656 95.408,28.884 L97.916,30.556 C98.1213344,30.7320009 98.1653339,30.9226656 98.048,31.128 C97.2266626,32.4480066 96.0606742,33.4893295 94.55,34.252 C93.0393258,35.0146705 91.3306762,35.396 89.424,35.396 C87.282656,35.396 85.478674,34.9266714 84.012,33.988 C82.545326,33.0493286 81.445337,31.7146753 80.712,29.984 C80.0079965,28.2533247 79.656,26.1560123 79.656,23.692 C79.656,21.550656 79.8173317,19.9226722 80.14,18.808 C80.6680026,16.7839899 81.7239921,15.1853392 83.308,14.012 C84.8920079,12.8386608 86.813322,12.252 89.072,12.252 C92.0346815,12.252 94.249326,12.9926593 95.716,14.474 C97.182674,15.9553407 98.0773317,18.133319 98.4,21.008 Z M89.072,15.904 C87.8106604,15.904 86.7693374,16.2193302 85.948,16.85 C85.1266626,17.4806698 84.5693348,18.3239947 84.276,19.38 C84.0706656,20.0253366 83.938667,20.8466617 83.88,21.844 C83.88,21.9613339 83.9386661,22.02 84.056,22.02 L94.132,22.02 C94.2493339,22.02 94.308,21.9613339 94.308,21.844 C94.249333,20.8759952 94.1613339,20.1573357 94.044,19.688 C93.7506652,18.5439943 93.1713377,17.6273368 92.306,16.938 C91.4406623,16.2486632 90.3626731,15.904 89.072,15.904 Z M113.844,12.296 C116.249345,12.296 118.155993,12.9926597 119.564,14.386 C120.972007,15.7793403 121.676,17.6639881 121.676,20.04 L121.676,34.56 C121.676,34.8533348 121.529335,35 121.236,35 L117.892,35 C117.598665,35 117.452,34.8533348 117.452,34.56 L117.452,20.876 C117.452,19.409326 117.026671,18.2213379 116.176,17.312 C115.325329,16.4026621 114.196007,15.948 112.788,15.948 C111.409326,15.948 110.280004,16.4026621 109.4,17.312 C108.519996,18.2213379 108.08,19.3946595 108.08,20.832 L108.08,34.56 C108.08,34.8533348 107.933335,35 107.64,35 L104.296,35 C104.002665,35 103.856,34.8533348 103.856,34.56 L103.856,13.044 C103.856,12.7506652 104.002665,12.604 104.296,12.604 L107.64,12.604 C107.933335,12.604 108.08,12.7506652 108.08,13.044 L108.08,14.628 C108.08,14.686667 108.102,14.7306665 108.146,14.76 C108.19,14.7893335 108.226667,14.774667 108.256,14.716 C109.51734,13.1026586 111.379988,12.296 113.844,12.296 Z M138.748,15.64 C138.748,15.9333348 138.601335,16.08 138.308,16.08 L133.556,16.08 C133.438666,16.08 133.38,16.1386661 133.38,16.256 L133.38,27.916 C133.38,29.1480062 133.658664,30.0353306 134.216,30.578 C134.773336,31.1206694 135.638661,31.392 136.812,31.392 L138.088,31.392 C138.381335,31.392 138.528,31.5386652 138.528,31.832 L138.528,34.56 C138.528,34.8533348 138.381335,35 138.088,35 C137.149329,35.058667 136.474669,35.088 136.064,35.088 C133.834656,35.088 132.155339,34.6846707 131.026,33.878 C129.896661,33.0713293 129.332,31.5826775 129.332,29.412 L129.332,16.256 C129.332,16.1386661 129.273334,16.08 129.156,16.08 L126.472,16.08 C126.178665,16.08 126.032,15.9333348 126.032,15.64 L126.032,13.044 C126.032,12.7506652 126.178665,12.604 126.472,12.604 L129.156,12.604 C129.273334,12.604 129.332,12.5453339 129.332,12.428 L129.332,7.236 C129.332,6.9426652 129.478665,6.796 129.772,6.796 L132.94,6.796 C133.233335,6.796 133.38,6.9426652 133.38,7.236 L133.38,12.428 C133.38,12.5453339 133.438666,12.604 133.556,12.604 L138.308,12.604 C138.601335,12.604 138.748,12.7506652 138.748,13.044 L138.748,15.64 Z M153.752,12.384 C154.690671,12.384 155.54133,12.5746648 156.304,12.956 C156.509334,13.0440004 156.582667,13.2199987 156.524,13.484 L155.82,16.784 C155.790667,17.0480013 155.614668,17.1360004 155.292,17.048 C154.793331,16.8426656 154.20667,16.74 153.532,16.74 L152.916,16.784 C151.537326,16.842667 150.400671,17.3193289 149.506,18.214 C148.611329,19.1086711 148.164,20.2746595 148.164,21.712 L148.164,34.56 C148.164,34.8533348 148.017335,35 147.724,35 L144.38,35 C144.086665,35 143.94,34.8533348 143.94,34.56 L143.94,13.044 C143.94,12.7506652 144.086665,12.604 144.38,12.604 L147.724,12.604 C148.017335,12.604 148.164,12.7506652 148.164,13.044 L148.164,15.376 C148.164,15.4640004 148.186,15.5153333 148.23,15.53 C148.274,15.5446667 148.310667,15.522667 148.34,15.464 C149.660007,13.4106564 151.463989,12.384 153.752,12.384 Z M169.064,35.352 C166.893322,35.352 165.001341,34.8020055 163.388,33.702 C161.774659,32.6019945 160.645337,31.0693432 160,29.104 C159.471997,27.5199921 159.208,25.7306766 159.208,23.736 C159.208,21.6533229 159.457331,19.8933405 159.956,18.456 C160.601337,16.5199903 161.730659,15.0020055 163.344,13.902 C164.957341,12.8019945 166.878656,12.252 169.108,12.252 C171.220011,12.252 173.060659,12.8019945 174.63,13.902 C176.199341,15.0020055 177.32133,16.5053238 177.996,18.412 C178.524003,19.9080075 178.788,21.6679899 178.788,23.692 C178.788,25.7453436 178.524003,27.5493256 177.996,29.104 C177.350663,31.0693432 176.236008,32.6019945 174.652,33.702 C173.067992,34.8020055 171.205344,35.352 169.064,35.352 Z M169.064,31.7 C170.237339,31.7 171.263996,31.3700033 172.144,30.71 C173.024004,30.0499967 173.654665,29.1186727 174.036,27.916 C174.358668,26.8013278 174.52,25.4226749 174.52,23.78 C174.52,22.1373251 174.373335,20.7733388 174.08,19.688 C173.698665,18.4853273 173.068004,17.5540033 172.188,16.894 C171.307996,16.2339967 170.23734,15.904 168.976,15.904 C167.773327,15.904 166.732004,16.2339967 165.852,16.894 C164.971996,17.5540033 164.341335,18.4853273 163.96,19.688 C163.637332,20.7146718 163.476,22.0786582 163.476,23.78 C163.476,25.4813418 163.637332,26.8599947 163.96,27.916 C164.312002,29.1186727 164.935329,30.0499967 165.83,30.71 C166.724671,31.3700033 167.80266,31.7 169.064,31.7 Z" id="Dentro-Copy" fill="#F3F8FE"></path>
                    <g id="Group-44">
                        <rect id="Rectangle" fill="#F3F8FE" x="0" y="0" width="39" height="39" rx="3"></rect>
                        <g id="l" transform="translate(7.000000, 8.000000)">
                            <path d="M24.6,5.49 C24.4694513,4.02085561 23.8332856,2.64249657 22.8,1.59 C21.7936448,0.580944051 20.4271122,0.0138347377 19.002,0.0138347377 C17.5768878,0.0138347377 16.2103552,0.580944051 15.204,1.59 L12.69,4.008 L10.29,1.608 C9.28657463,0.576172103 7.90727559,-0.00412953315 6.468,-7.99355157e-16 L6.468,-7.99355157e-16 C5.0367331,0.000466392551 3.66500991,0.572917806 2.658,1.59 C1.60659781,2.66226245 0.911054497,4.03239897 0.666,5.514 C0.617371761,5.83362603 0.595296322,6.15673018 0.6,6.48 C0.596853627,6.72164403 0.61897381,6.96295512 0.666,7.2 C0.696,7.374 0.738,7.548 0.786,7.722 L0.786,7.722 C0.886176158,7.99456931 1.00650882,8.25930116 1.146,8.514 C1.61071128,9.91502675 2.17618771,11.2805922 2.838,12.6 C2.97,12.828 3.114,13.092 3.228,13.332 L3.228,13.332 C3.73956551,14.3172147 4.14195319,15.3553749 4.428,16.428 C4.542,16.98 4.65,17.592 4.734,18.228 L4.734,18.228 C4.89863023,19.8337502 5.26553727,21.4122568 5.826,22.926 C5.90603423,23.1312903 5.99819665,23.3316435 6.102,23.526 C6.19670996,23.818553 6.49726396,23.9921489 6.798,23.928 C6.92304395,23.904646 7.03808917,23.8439858 7.128,23.754 L12.6,19.08 L11.844,18.414 L11.646,18.258 L11.472,18.402 L11.184,18.648 L10.908,18.882 C9.708,19.926 6.912,22.302 6.912,22.296 C6.43760752,20.9368617 6.12151993,19.527554 5.97,18.096 C5.88,17.4 5.766,16.758 5.646,16.2 L5.646,16.2 C5.39340116,14.9917734 4.96909509,13.825942 4.386,12.738 L4.386,12.738 L4.386,12.738 C4.386,12.738 4.386,12.738 4.386,12.738 L4.386,12.738 C4.22474526,12.4606017 4.04848357,12.1922032 3.858,11.934 C3.68560781,11.6853427 3.53121421,11.4246781 3.396,11.154 C3.882,11.64 4.266,12.012 4.254,11.994 L18,23.748 C18.0885083,23.8366412 18.2012215,23.8971724 18.324,23.922 C18.5052589,23.9589742 18.6934393,23.9102687 18.834,23.79 C18.9176356,23.7157144 18.9832898,23.6233881 19.026,23.52 C19.122,23.34 19.212,23.148 19.296,22.92 C19.8592729,21.4071014 20.2262643,19.8282316 20.388,18.222 L20.388,18.222 C20.466,17.58 20.58,16.974 20.694,16.422 C20.9855793,15.3569641 21.3877678,14.3253506 21.894,13.344 C22.02,13.104 22.158,12.828 22.284,12.6 C22.953979,11.2936438 23.5275091,9.94003259 24,8.55 C24.1705402,8.19427256 24.3168729,7.82743867 24.438,7.452 L24.438,7.452 C24.4677467,7.34738353 24.4917822,7.24122679 24.51,7.134 C24.552,6.936 24.588,6.594 24.588,6.594 C24.6379167,6.22793253 24.6419478,5.85706599 24.6,5.49 Z M21.264,11.862 C21.084,12.108 20.898,12.402 20.742,12.666 L20.742,12.666 C20.1475562,13.7766944 19.7151706,14.966765 19.458,16.2 L19.458,16.2 C19.338,16.8 19.224,17.4 19.14,18.108 C18.9892717,19.5391271 18.6752278,20.9482985 18.204,22.308 L13.638,18.414 L13.638,18.414 C13.638,18.384 13.848,18.222 14.136,17.946 L14.136,17.946 C15.936,16.302 21.804,10.944 21.804,10.949995 C21.6425468,11.2646063 21.4622177,11.5691621 21.264,11.862 L21.264,11.862 Z M22.35,8.61 L19.734,11.238 L19.692,11.274 L13.26,17.058 L13.26,17.058 L12.66,17.574 L12.66,17.574 L5.4,11.334 L2.718,8.676 C2.34492352,8.30113153 2.07964158,7.8327431 1.95,7.32 C1.95,7.272 1.95,7.224 1.95,7.182 C1.8630387,6.69182706 1.8630387,6.19017294 1.95,5.7 C2.13492174,4.48241437 2.69004226,3.35122538 3.54,2.46 C4.31822648,1.68750865 5.37147727,1.25584849 6.468,1.26 L6.468,1.26 C7.56218873,1.2587495 8.61250865,1.69009238 9.39,2.46 L12.072,5.148 L12.072,5.148 C12.408,5.468 12.936,5.468 13.272,5.148 L13.272,5.148 L16.002,2.46 C17.6182149,0.846456195 20.2357851,0.846456195 21.852,2.46 L21.852,2.46 C22.6871648,3.30771485 23.2024484,4.41886144 23.31,5.604 C23.4605668,6.69957627 23.1077004,7.80448909 22.35,8.61 Z" id="Shape" fill="#147DE7" fill-rule="nonzero"></path>
                            <path d="M12.924,17.364 L13.836,18.222 C13.518,18.504 13.638,18.402 13.638,18.402 L12.69,17.574 L12.924,17.364 Z M11.262,18.564 L11.604,18.288 L12.558,19.11 L12.252,19.368 L11.262,18.564 Z M21.27,11.85 C21.4736651,11.5617736 21.6523156,11.2566625 21.804,10.938 L23.976,8.538 C23.484,9.924 20.742,12.666 20.742,12.666 C20.9010376,12.3833921 21.0773731,12.1108737 21.27,11.85 Z M3.828,11.85 C4.01864214,12.1089047 4.1929794,12.3794281 4.35,12.66 C4.35,12.66 1.626,9.912 1.134,8.526 L3.396,11.13 C3.51399654,11.3846741 3.65881536,11.6260388 3.828,11.85 Z" id="Combined-Shape" fill="#404752"></path>
                        </g>
                    </g>
                </g>
            </g>
        </g>
    </g>
</svg>